<svg width="24" height="24" viewBox="0 0 24 1117" 24="none" xmlns="http://www.w3.org/2000/svg">
<rect x="252.547" y="0.230469" width="900" height="900" rx="120" transform="rotate(16.2813 252.547 0.230469)" fill="#636363"/>
<rect x="81.9443" y="108" width="900" height="900" rx="120" fill="#333333"/>
<path d="M697.558 422.342L701.819 413.457L692.132 415.265L693.05 420.18C692.132 415.265 692.129 415.265 692.125 415.266L692.117 415.268L692.097 415.271L692.042 415.282C691.999 415.291 691.943 415.302 691.875 415.316C691.739 415.345 691.553 415.385 691.32 415.439C690.853 415.547 690.196 415.711 689.368 415.944C687.713 416.411 685.372 417.158 682.496 418.303C676.744 420.594 668.851 424.48 660.036 430.906C643.494 442.964 623.887 463.835 609.049 499.483C606.64 496.691 603.53 492.918 599.992 488.23C591.565 477.066 580.737 460.754 571.174 440.218C552.058 399.166 538.053 341.382 558.191 273.946L561.128 264.108L551.572 267.862L553.4 272.516C551.572 267.862 551.569 267.863 551.566 267.864L551.557 267.868L551.533 267.877L551.457 267.907C551.395 267.933 551.309 267.968 551.2 268.013C550.981 268.103 550.671 268.234 550.275 268.407C549.483 268.753 548.347 269.268 546.921 269.963C544.069 271.354 540.048 273.47 535.275 276.411C525.736 282.289 513.15 291.49 500.899 304.817C476.299 331.578 453.274 374.76 458.641 440.276L463.625 439.868L458.641 440.277C463.115 494.876 460.473 526.356 456.856 544.005C456.775 544.398 456.694 544.784 456.613 545.163C451.919 510.988 437.122 485.296 422.333 467.442C413.397 456.654 404.458 448.717 397.734 443.465C394.37 440.837 391.553 438.875 389.557 437.559C388.559 436.901 387.765 436.404 387.21 436.065C386.933 435.896 386.715 435.766 386.561 435.675C386.484 435.63 386.424 435.594 386.379 435.569L386.325 435.537L386.307 435.527L386.301 435.524C386.298 435.522 386.296 435.521 383.826 439.868L386.296 435.521L376.952 430.213L378.91 440.779C388.752 493.91 381.617 527.523 371.971 558.996C370.413 564.078 368.779 569.13 367.133 574.219C358.542 600.774 349.632 628.318 349.632 666.287C349.632 766.915 431.259 848.484 531.944 848.484C632.629 848.484 714.257 766.915 714.257 666.287C714.257 626.27 706.21 589.346 698.848 555.566C697.035 547.243 695.262 539.111 693.662 531.171C685.493 490.631 681.808 455.184 697.558 422.342Z" fill="#F95311" stroke="#B31919" stroke-width="10"/>
<path d="M660.189 708.363C660.189 782.01 603.017 844.882 528.988 843.461C459.32 842.126 407.486 789.402 413.026 720.531C415.498 689.793 438.985 639.995 477.306 589.583L502.854 604.953C502.029 542.656 531.697 459.865 531.697 459.865C551.185 547.095 660.189 569.705 660.189 708.363Z" fill="#FFA538"/>
<path d="M482.04 646.184C472.282 705.374 452.767 726.923 452.767 764.564C452.767 804.024 487.717 843.484 530.829 843.484C574.253 843.484 609.011 807.615 608.89 763.714C608.564 645.807 540.587 586.994 540.587 586.994C550.346 646.185 521.072 675.779 521.072 675.779C508.878 657.288 482.04 646.184 482.04 646.184Z" fill="#FFE64B"/>
<g clip-path="url(#clip0_95_368)">
<path d="M517.058 825.468C518.344 826.152 519.7 824.672 518.913 823.447C514.641 816.799 510.596 805.612 517.041 791.205C527.788 767.18 534.327 754.736 534.327 754.736C534.327 754.736 537.806 769.258 547.235 782.169C556.309 794.596 561.277 810.224 553.269 823.244C552.517 824.466 553.843 825.907 555.12 825.254C565.032 820.183 576.15 810.012 577.404 789.772C577.866 783.588 577.173 774.929 573.704 764.002C569.245 750.154 563.762 743.692 560.59 740.917C559.641 740.087 558.165 740.823 558.243 742.081C559.168 757.023 553.546 760.815 550.347 752.27C549.069 748.856 548.323 742.953 548.323 735.764C548.323 723.795 544.851 711.474 537.195 701.462C535.204 698.858 532.875 696.425 530.202 694.35C529.235 693.599 527.832 694.354 527.921 695.576C528.509 703.69 527.976 726.944 507.575 754.725C489.077 780.495 496.245 800.286 498.788 805.647C503.651 815.916 510.434 821.946 517.058 825.468Z" fill="white"/>
</g>
<defs>
<clipPath id="clip0_95_368">
<rect width="131.59" height="131.59" fill="white" transform="translate(470.61 694.051)"/>
</clipPath>
</defs>
</svg>
