<svg width="20" height="18" viewBox="0 0 20 18" fill="none" xmlns="http://www.w3.org/2000/svg">
<mask id="mask0_240_5065" style="mask-type:luminance" maskUnits="userSpaceOnUse" x="0" y="0" width="19" height="18">
<path d="M18.9702 0H0.970215V18H18.9702V0Z" fill="white"/>
</mask>
<g mask="url(#mask0_240_5065)">
<path d="M17.4702 16.5L13.7202 12.75M15.5952 8.0625C15.5952 8.9243 15.4255 9.77766 15.0957 10.5739C14.7659 11.3701 14.2825 12.0935 13.6731 12.7029C13.0637 13.3123 12.3403 13.7957 11.5441 14.1255C10.7479 14.4553 9.89451 14.625 9.03271 14.625C8.17092 14.625 7.31755 14.4553 6.52135 14.1255C5.72516 13.7957 5.00171 13.3123 4.39233 12.7029C3.78294 12.0935 3.29955 11.3701 2.96976 10.5739C2.63996 9.77766 2.47021 8.9243 2.47021 8.0625C2.47021 6.32202 3.16162 4.65282 4.39233 3.42211C5.62303 2.1914 7.29223 1.5 9.03271 1.5C10.7732 1.5 12.4424 2.1914 13.6731 3.42211C14.9038 4.65282 15.5952 6.32202 15.5952 8.0625Z" stroke="black" stroke-width="2" stroke-linecap="round" stroke-linejoin="round"/>
</g>
</svg>
